PathFileType	4	(X/Y/Z)	7_coords_data.trc
DataRate	CameraRate	NumFrames	NumMarkers	Units	OrigDataRate	OrigDataStartFrame	OrigNumFrames
30.0	30.0	9	21	m	30.0	32	53
Frame#	Time	THUMB_TIP	THUMB_IP	THUMB_MCP	THUMB_CMC	INDEX_TIP	INDEX_DIP	INDEX_PIP	INDEX_MCP	MIDDLE_TIP	MIDDLE_DIP	MIDDLE_PIP	MIDDLE_MCP	RING_TIP	RING_DIP	RING_PIP	RING_MCP	PINKY_TIP	PINKY_DIP	PINKY_PIP	PINKY_MCP	WRIST
X1	Y1	Z1	X2	Y2	Z2	X3	Y3	Z3	X4	Y4	Z4	X5	Y5	Z5	X6	Y6	Z6	X7	Y7	Z7	X8	Y8	Z8	X9	Y9	Z9	X10	Y10	Z10	X11	Y11	Z11	X12	Y12	Z12	X13	Y13	Z13	X14	Y14	Z14	X15	Y15	Z15	X16	Y16	Z16	X17	Y17	Z17	X18	Y18	Z18	X19	Y19	Z19	X20	Y20	Z20	X21	Y21	Z21
31	1.0333333333333334	-0.036607799530029295	-0.057599601745605467	0.9966229858398438	-0.027496299743652343	-0.037103500366210934	1.010260009765625	-0.03191150093078613	-0.019353900909423828	1.032300048828125	-0.03359640121459961	0.011104999542236328	1.0490400390625	0.02145840072631836	-0.0025068199634552	0.9358099975585937	0.001787799954414367	-0.000780130982398986	0.9426909790039063	-0.01621489906311035	0.0012738000154495239	0.955843017578125	-0.02769379997253418	0.006046350002288818	0.9912579956054688	0.025357000350952147	0.03863249969482422	0.9193670043945312	0.00554571008682251	0.037875801086425784	0.9320009765625	-0.014347000122070313	0.03497800064086914	0.9509849853515625	-0.02879560089111328	0.02940489959716797	0.9869749755859375	0.02003300094604492	0.05904740142822266	0.9281790161132812	0.003323839902877807	0.05829600143432617	0.943301025390625	-0.01319789981842041	0.055884700775146484	0.9618920288085937	-0.026551700592041014	0.04900329971313477	0.9935170288085937	0.01044890022277832	0.0919385986328125	0.959844970703125	-0.00212620997428894	0.08511389923095704	0.9718510131835938	-0.011837400436401368	0.07796369934082031	0.9836389770507813	-0.021117399215698242	0.0653031005859375	1.004239990234375	-0.0545635986328125	0.03797209930419922	1.0613900146484374
32	1.0666666666666667	-0.03603710174560547	-0.059263301849365235	0.9979990234375	-0.027527900695800783	-0.03907690048217773	1.012219970703125	-0.03286640167236328	-0.021019699096679688	1.03368994140625	-0.03450529861450195	0.009360969543457031	1.0502900390625	0.013203499794006347	-0.010386300086975098	0.9280339965820312	-0.0036792099475860592	-0.00647750997543335	0.94068798828125	-0.01793239974975586	-0.0025954298973083494	0.957593017578125	-0.025782499313354492	0.003564870119094848	0.99302001953125	0.010201499938964844	0.03343009948730469	0.906489013671875	-0.002463759899139404	0.03223709869384766	0.9274559936523438	-0.015434900283813476	0.029951099395751954	0.9520159912109375	-0.025154800415039064	0.02649329948425293	0.9887069702148438	0.009413419723510742	0.058755298614501954	0.920447021484375	-0.0009017199873924251	0.05610979843139648	0.9412379760742188	-0.011199999809265136	0.05270309829711914	0.963718994140625	-0.020097999572753905	0.04565800094604492	0.9954320068359375	0.007456459999084473	0.091402099609375	0.957406005859375	-0.000561779975891113	0.08310019683837891	0.972468017578125	-0.006905980110168457	0.07518170166015625	0.9857940063476562	-0.014513999938964843	0.06163719940185547	1.0065800170898438	-0.05483169937133789	0.037409900665283206	1.06168994140625
33	1.1	-0.035553298950195315	-0.06219110107421875	0.9999240112304687	-0.028085500717163085	-0.04145970153808594	1.01425	-0.034004100799560545	-0.022890600204467773	1.0351800537109375	-0.03489780044555664	0.007689939975738525	1.051300048828125	0.005578539848327637	-0.013801300048828125	0.92468798828125	-0.009481969833374024	-0.009364580154418945	0.9397039794921875	-0.021754999160766602	-0.005017889976501465	0.9580360107421875	-0.027274900436401368	0.001307229995727539	0.9938189697265625	0.000421256989240646	0.030698600769042968	0.903166015625	-0.008810420036315918	0.02928179931640625	0.926219970703125	-0.01867219924926758	0.027044200897216798	0.9521530151367188	-0.025773000717163087	0.024049299240112305	0.9892940063476563	0.002523169994354248	0.05593529891967773	0.918041015625	-0.005101150035858155	0.05307360076904297	0.9401690063476562	-0.012907199859619141	0.04968849945068359	0.9635960083007813	-0.0195487003326416	0.04289569854736328	0.995802978515625	0.005789040088653564	0.08846610260009766	0.956197021484375	-0.001175410032272338	0.08004810333251954	0.9719970092773438	-0.006742969989776611	0.07215619659423828	0.9857589721679687	-0.013530400276184082	0.05870389938354492	1.0069199829101563	-0.05405220031738281	0.03607709884643555	1.06281005859375
34	1.1333333333333333	-0.03451319885253906	-0.06475920104980469	1.0018200073242187	-0.028165199279785155	-0.04346089935302734	1.015969970703125	-0.03476639938354492	-0.024438699722290038	1.0363299560546875	-0.03542290115356445	0.006475550174713135	1.0519599609375	0.000130728006362915	-0.017136999130249023	0.9235770263671875	-0.013993300437927247	-0.01215719985961914	0.9395170288085938	-0.025162500381469728	-0.007403629779815674	0.9587160034179687	-0.029376300811767578	-0.0005331040024757381	0.9946589965820313	-0.00534119987487793	0.026904199600219728	0.9020679931640625	-0.013045499801635742	0.02579520034790039	0.9257260131835937	-0.021618600845336913	0.024083499908447267	0.9523179931640625	-0.027351499557495117	0.02184160041809082	0.9896890258789063	-0.00081532597541809	0.05240719985961914	0.9171909790039062	-0.007540649890899658	0.049862098693847653	0.9396690063476563	-0.01454010009765625	0.04686119842529297	0.9633870239257812	-0.020410600662231444	0.04057659912109375	0.9957689819335938	0.0058685002326965335	0.08547869873046875	0.9557109985351563	-0.001076200008392334	0.07725430297851563	0.9716539916992187	-0.006685070037841797	0.06954779815673828	0.9854959716796875	-0.01385159969329834	0.056328399658203125	1.00675	-0.0539546012878418	0.03513610076904297	1.0636099853515626
35	1.1666666666666667	-0.031175800323486328	-0.06568810272216796	1.0029199829101563	-0.026038700103759766	-0.04413209915161133	1.016780029296875	-0.03389059829711914	-0.025203699111938475	1.0370899658203125	-0.03521480178833008	0.0057122898101806645	1.05256005859375	-0.0017267800569534303	-0.01771660041809082	0.9230850219726563	-0.015177599906921387	-0.012973299980163574	0.9397730102539062	-0.025678899765014647	-0.008394689559936523	0.9593309936523438	-0.02963369941711426	-0.0015098999738693232	0.995427001953125	-0.007887100219726563	0.02611210060119629	0.9020859985351563	-0.014812199592590333	0.024877300262451173	0.9260980224609375	-0.022653099060058593	0.023140100479125975	0.9529710083007813	-0.027709400177001953	0.02096139907836914	0.99039599609375	-0.001383880019187927	0.051727100372314455	0.9177550048828125	-0.008028770446777344	0.049132301330566404	0.9402139892578125	-0.015004500389099121	0.046077999114990234	0.9639949951171874	-0.02079140090942383	0.03982059860229492	0.9963599853515624	0.006603869915008545	0.08484400177001954	0.9568049926757812	-0.000615433990955352	0.07660070037841797	0.9726190185546875	-0.006530930042266845	0.0688988037109375	0.9863880004882812	-0.014230099678039551	0.055586498260498045	1.0073200073242188	-0.05416180038452149	0.03418190002441406	1.0641400146484374
36	1.2	-0.025516599655151368	-0.06583300018310546	1.0044000244140625	-0.022597600936889648	-0.04387020111083984	1.0182999877929688	-0.03224700164794922	-0.02512879943847656	1.0381300048828126	-0.03444079971313477	0.005932859897613526	1.053219970703125	-0.002834559917449951	-0.017006900787353514	0.9228460083007812	-0.01600740051269531	-0.012508299827575684	0.9399240112304688	-0.026211299896240235	-0.008169960021972657	0.9596300048828125	-0.029576400756835937	-0.001526669979095459	0.9956699829101563	-0.00874386978149414	0.027282899856567382	0.9024569702148437	-0.015652000427246095	0.025688100814819335	0.9264340209960937	-0.023387699127197265	0.023642799377441407	0.9532579956054688	-0.028082300186157226	0.02103619956970215	0.99068701171875	-0.000742016971111297	0.05227510070800781	0.918426025390625	-0.007798490047454834	0.049574298858642576	0.9407630004882812	-0.015159199714660645	0.0464093017578125	0.964406005859375	-0.021296600341796874	0.039943099975585934	0.9966619873046875	0.007595670223236084	0.0848270034790039	0.9576530151367187	-4.173680208623001e-06	0.07664029693603516	0.9732490234375	-0.006273379802703857	0.06895079803466797	0.9868419799804687	-0.014510499954223632	0.055643798828125	1.0076400146484374	-0.0535078010559082	0.03419829940795899	1.06493994140625
37	1.2333333333333334	-0.021835599899291992	-0.06533589935302735	1.005510009765625	-0.020853500366210937	-0.04318220138549805	1.0194500122070314	-0.031689599990844725	-0.02472909927368164	1.0390799560546875	-0.034104499816894535	0.006455949783325195	1.053800048828125	-0.003204689979553222	-0.017077999114990236	0.923572998046875	-0.016588600158691406	-0.012588500022888183	0.9404710083007812	-0.027008499145507812	-0.008233149528503418	0.9601199951171875	-0.03045439910888672	-0.001339210033416748	0.9962680053710937	-0.00973643970489502	0.026762399673461914	0.9027630004882813	-0.016766799926757812	0.025382400512695313	0.92668798828125	-0.024573299407958986	0.023547199249267577	0.9534959716796875	-0.029112199783325195	0.02117090034484863	0.9910040283203125	0.000100432999432086	0.051211700439453126	0.919010009765625	-0.007710259914398193	0.04896780014038086	0.9410789794921876	-0.01567049980163574	0.04619810104370117	0.96460302734375	-0.022197999954223634	0.04013249969482422	0.9967659912109375	0.010259799957275391	0.08377649688720704	0.9586519775390625	0.001702700018882751	0.07603179931640625	0.9739420166015625	-0.0055191898345947265	0.06864179992675781	0.9872869873046874	-0.015042099952697754	0.055768501281738284	1.0077899780273438	-0.053025001525878905	0.0344734001159668	1.0656500244140625
38	1.2666666666666666	-0.018542999267578124	-0.06399819946289062	1.0055	-0.019479999542236327	-0.04207400131225586	1.0196500244140625	-0.03134449958801269	-0.024219499588012696	1.0394300537109376	-0.034137199401855466	0.006929170131683349	1.0541300048828126	-0.004562129974365234	-0.015704400062561037	0.9236010131835938	-0.017999300003051756	-0.011532699584960938	0.9404140014648438	-0.028540300369262694	-0.007384119987487793	0.9600419921875	-0.031639299392700194	-0.00075450599193573	0.9962990112304687	-0.011385800361633301	0.02808489990234375	0.9028900146484375	-0.01857939910888672	0.026584699630737306	0.9267769775390625	-0.026470699310302735	0.02449799919128418	0.9535570068359375	-0.03067849922180176	0.021819000244140626	0.9911530151367187	0.0007066929936408991	0.05169329833984375	0.919864990234375	-0.008072629928588867	0.049621200561523436	0.9415490112304687	-0.016912900924682617	0.04695420074462891	0.9648709716796875	-0.023664400100708007	0.04081069946289063	0.9967020263671875	0.012894100189208984	0.0831759033203125	0.9603809814453125	0.003141299962997436	0.07589859771728516	0.9750819702148438	-0.005213059902191162	0.06879350280761719	0.9880089721679688	-0.016103700637817384	0.0563286018371582	1.007760009765625	-0.05283819961547852	0.03464820098876953	1.066010009765625
39	1.3	-0.015748600006103515	-0.06240029907226562	1.004780029296875	-0.018433099746704103	-0.04085329818725586	1.0193499755859374	-0.031140199661254885	-0.023681299209594726	1.0393699951171875	-0.034239498138427735	0.007438370227813721	1.05418994140625	-0.006755109786987305	-0.014537599563598633	0.9232940063476562	-0.02030270004272461	-0.010519399642944335	0.9401420288085938	-0.030826099395751955	-0.006528279781341553	0.9598049926757812	-0.0334385986328125	-0.000170598000288009	0.9961090087890625	-0.012502699851989747	0.02931959915161133	0.9030859985351563	-0.020099300384521485	0.027674600601196288	0.926719970703125	-0.028359199523925783	0.025433799743652345	0.9533170166015625	-0.03254100036621094	0.022449600219726563	0.9911320190429688	0.0027512800693511963	0.05147269821166992	0.9212249755859375	-0.007546299934387207	0.04991510009765625	0.9420910034179687	-0.017854000091552736	0.04762030029296875	0.964822998046875	-0.025552799224853515	0.041526401519775394	0.9965189819335938	0.015270899772644043	0.08168920135498046	0.9618820190429688	0.004181940078735352	0.07523190307617188	0.975905029296875	-0.005359980106353759	0.06871119689941406	0.9882999877929688	-0.017634899139404296	0.05694660186767578	1.0075599975585938	-0.05288890075683594	0.03499390029907227	1.0664200439453124
